# Scavock box-rig character (D15)
o scavock_character
v -0.25000 1.50000 -0.25000
v -0.25000 1.50000 0.25000
v -0.25000 2.00000 -0.25000
v -0.25000 2.00000 0.25000
v 0.25000 1.50000 -0.25000
v 0.25000 1.50000 0.25000
v 0.25000 2.00000 -0.25000
v 0.25000 2.00000 0.25000
v -0.25000 0.75000 -0.12500
v -0.25000 0.75000 0.12500
v -0.25000 1.50000 -0.12500
v -0.25000 1.50000 0.12500
v 0.25000 0.75000 -0.12500
v 0.25000 0.75000 0.12500
v 0.25000 1.50000 -0.12500
v 0.25000 1.50000 0.12500
v -0.50000 0.75000 -0.12500
v -0.50000 0.75000 0.12500
v -0.50000 1.50000 -0.12500
v -0.50000 1.50000 0.12500
v -0.25000 0.75000 -0.12500
v -0.25000 0.75000 0.12500
v -0.25000 1.50000 -0.12500
v -0.25000 1.50000 0.12500
v 0.25000 0.75000 -0.12500
v 0.25000 0.75000 0.12500
v 0.25000 1.50000 -0.12500
v 0.25000 1.50000 0.12500
v 0.50000 0.75000 -0.12500
v 0.50000 0.75000 0.12500
v 0.50000 1.50000 -0.12500
v 0.50000 1.50000 0.12500
v -0.25000 0.00000 -0.12500
v -0.25000 0.00000 0.12500
v -0.25000 0.75000 -0.12500
v -0.25000 0.75000 0.12500
v 0.00000 0.00000 -0.12500
v 0.00000 0.00000 0.12500
v 0.00000 0.75000 -0.12500
v 0.00000 0.75000 0.12500
v 0.00000 0.00000 -0.12500
v 0.00000 0.00000 0.12500
v 0.00000 0.75000 -0.12500
v 0.00000 0.75000 0.12500
v 0.25000 0.00000 -0.12500
v 0.25000 0.00000 0.12500
v 0.25000 0.75000 -0.12500
v 0.25000 0.75000 0.12500
vt 0.12500 0.75000
vt 0.25000 0.75000
vt 0.25000 0.87500
vt 0.12500 0.87500
vt 0.37500 0.75000
vt 0.50000 0.75000
vt 0.50000 0.87500
vt 0.37500 0.87500
vt 0.00000 0.75000
vt 0.12500 0.75000
vt 0.12500 0.87500
vt 0.00000 0.87500
vt 0.25000 0.75000
vt 0.37500 0.75000
vt 0.37500 0.87500
vt 0.25000 0.87500
vt 0.12500 0.87500
vt 0.25000 0.87500
vt 0.25000 1.00000
vt 0.12500 1.00000
vt 0.25000 0.87500
vt 0.37500 0.87500
vt 0.37500 1.00000
vt 0.25000 1.00000
vt 0.31250 0.50000
vt 0.43750 0.50000
vt 0.43750 0.68750
vt 0.31250 0.68750
vt 0.50000 0.50000
vt 0.62500 0.50000
vt 0.62500 0.68750
vt 0.50000 0.68750
vt 0.25000 0.50000
vt 0.31250 0.50000
vt 0.31250 0.68750
vt 0.25000 0.68750
vt 0.43750 0.50000
vt 0.50000 0.50000
vt 0.50000 0.68750
vt 0.43750 0.68750
vt 0.31250 0.68750
vt 0.43750 0.68750
vt 0.43750 0.75000
vt 0.31250 0.75000
vt 0.43750 0.68750
vt 0.56250 0.68750
vt 0.56250 0.75000
vt 0.43750 0.75000
vt 0.68750 0.50000
vt 0.75000 0.50000
vt 0.75000 0.68750
vt 0.68750 0.68750
vt 0.81250 0.50000
vt 0.87500 0.50000
vt 0.87500 0.68750
vt 0.81250 0.68750
vt 0.62500 0.50000
vt 0.68750 0.50000
vt 0.68750 0.68750
vt 0.62500 0.68750
vt 0.75000 0.50000
vt 0.81250 0.50000
vt 0.81250 0.68750
vt 0.75000 0.68750
vt 0.68750 0.68750
vt 0.75000 0.68750
vt 0.75000 0.75000
vt 0.68750 0.75000
vt 0.75000 0.68750
vt 0.81250 0.68750
vt 0.81250 0.75000
vt 0.75000 0.75000
vt 0.56250 0.00000
vt 0.62500 0.00000
vt 0.62500 0.18750
vt 0.56250 0.18750
vt 0.68750 0.00000
vt 0.75000 0.00000
vt 0.75000 0.18750
vt 0.68750 0.18750
vt 0.50000 0.00000
vt 0.56250 0.00000
vt 0.56250 0.18750
vt 0.50000 0.18750
vt 0.62500 0.00000
vt 0.68750 0.00000
vt 0.68750 0.18750
vt 0.62500 0.18750
vt 0.56250 0.18750
vt 0.62500 0.18750
vt 0.62500 0.25000
vt 0.56250 0.25000
vt 0.62500 0.18750
vt 0.68750 0.18750
vt 0.68750 0.25000
vt 0.62500 0.25000
vt 0.06250 0.50000
vt 0.12500 0.50000
vt 0.12500 0.68750
vt 0.06250 0.68750
vt 0.18750 0.50000
vt 0.25000 0.50000
vt 0.25000 0.68750
vt 0.18750 0.68750
vt 0.00000 0.50000
vt 0.06250 0.50000
vt 0.06250 0.68750
vt 0.00000 0.68750
vt 0.12500 0.50000
vt 0.18750 0.50000
vt 0.18750 0.68750
vt 0.12500 0.68750
vt 0.06250 0.68750
vt 0.12500 0.68750
vt 0.12500 0.75000
vt 0.06250 0.75000
vt 0.12500 0.68750
vt 0.18750 0.68750
vt 0.18750 0.75000
vt 0.12500 0.75000
vt 0.31250 0.00000
vt 0.37500 0.00000
vt 0.37500 0.18750
vt 0.31250 0.18750
vt 0.43750 0.00000
vt 0.50000 0.00000
vt 0.50000 0.18750
vt 0.43750 0.18750
vt 0.25000 0.00000
vt 0.31250 0.00000
vt 0.31250 0.18750
vt 0.25000 0.18750
vt 0.37500 0.00000
vt 0.43750 0.00000
vt 0.43750 0.18750
vt 0.37500 0.18750
vt 0.31250 0.18750
vt 0.37500 0.18750
vt 0.37500 0.25000
vt 0.31250 0.25000
vt 0.37500 0.18750
vt 0.43750 0.18750
vt 0.43750 0.25000
vt 0.37500 0.25000
f 2/1 6/2 8/3 4/4
f 5/5 1/6 3/7 7/8
f 1/9 2/10 4/11 3/12
f 6/13 5/14 7/15 8/16
f 4/17 8/18 7/19 3/20
f 1/21 5/22 6/23 2/24
f 10/25 14/26 16/27 12/28
f 13/29 9/30 11/31 15/32
f 9/33 10/34 12/35 11/36
f 14/37 13/38 15/39 16/40
f 12/41 16/42 15/43 11/44
f 9/45 13/46 14/47 10/48
f 18/49 22/50 24/51 20/52
f 21/53 17/54 19/55 23/56
f 17/57 18/58 20/59 19/60
f 22/61 21/62 23/63 24/64
f 20/65 24/66 23/67 19/68
f 17/69 21/70 22/71 18/72
f 26/73 30/74 32/75 28/76
f 29/77 25/78 27/79 31/80
f 25/81 26/82 28/83 27/84
f 30/85 29/86 31/87 32/88
f 28/89 32/90 31/91 27/92
f 25/93 29/94 30/95 26/96
f 34/97 38/98 40/99 36/100
f 37/101 33/102 35/103 39/104
f 33/105 34/106 36/107 35/108
f 38/109 37/110 39/111 40/112
f 36/113 40/114 39/115 35/116
f 33/117 37/118 38/119 34/120
f 42/121 46/122 48/123 44/124
f 45/125 41/126 43/127 47/128
f 41/129 42/130 44/131 43/132
f 46/133 45/134 47/135 48/136
f 44/137 48/138 47/139 43/140
f 41/141 45/142 46/143 42/144
